<svg width="123" height="29" viewBox="0 0 123 29" fill="none" xmlns="http://www.w3.org/2000/svg">
<path d="M106.495 28.603C103.289 28.603 100.526 28.0227 98.2041 26.862C95.9104 25.6737 94.1555 24.0155 92.9395 21.8875C91.7235 19.732 91.1155 17.2033 91.1155 14.3015C91.1155 11.3998 91.7235 8.88491 92.9395 6.75695C94.1555 4.60136 95.9104 2.94321 98.2041 1.78251C100.526 0.594169 103.289 0 106.495 0C109.811 0 112.616 0.594169 114.91 1.78251C117.231 2.94321 119 4.60136 120.216 6.75695C121.432 8.88491 122.04 11.3998 122.04 14.3015C122.04 17.2033 121.432 19.732 120.216 21.8875C119 24.0155 117.231 25.6737 114.91 26.862C112.616 28.0227 109.811 28.603 106.495 28.603ZM106.495 21.1414C108.374 21.1414 109.839 20.9617 110.889 20.6025C111.939 20.2156 112.671 19.5247 113.086 18.5298C113.528 17.5349 113.749 16.1255 113.749 14.3015C113.749 12.4499 113.528 11.0405 113.086 10.0732C112.671 9.07836 111.939 8.40128 110.889 8.04201C109.839 7.65511 108.374 7.46166 106.495 7.46166C104.616 7.46166 103.165 7.65511 102.142 8.04201C101.12 8.40128 100.401 9.07836 99.9866 10.0732C99.5997 11.0405 99.4063 12.4499 99.4063 14.3015C99.4063 16.1255 99.5997 17.5349 99.9866 18.5298C100.401 19.5247 101.12 20.2156 102.142 20.6025C103.165 20.9617 104.616 21.1414 106.495 21.1414Z" fill="url(#paint0_linear_2089_4656)"/>
<path d="M71.9277 28.603C69.0259 28.603 66.5387 28.0227 64.466 26.862C62.3933 25.6737 60.8043 24.0155 59.6988 21.8875C58.621 19.732 58.0821 17.2033 58.0821 14.3015C58.0821 11.3998 58.7178 8.88491 59.989 6.75695C61.2602 4.60136 63.098 2.94321 65.5023 1.78251C67.9067 0.594169 70.7946 0 74.1662 0C77.3166 0 80.0111 0.442173 82.2496 1.32652C84.4881 2.21086 86.2016 3.48211 87.3899 5.14026C88.5782 6.77077 89.1724 8.73291 89.1724 11.0267V11.3169H80.4671V11.0267C80.4671 9.7278 79.9973 8.81582 79.0577 8.29074C78.1181 7.73802 76.4185 7.46166 73.9589 7.46166C71.9691 7.46166 70.4215 7.65511 69.3161 8.04201C68.2383 8.40128 67.4783 9.07836 67.0361 10.0732C66.594 11.0405 66.3729 12.4499 66.3729 14.3015C66.3729 16.1255 66.5801 17.5349 66.9947 18.5298C67.4092 19.5247 68.1277 20.2156 69.1503 20.6025C70.2004 20.9617 71.6651 21.1414 73.5444 21.1414C75.7829 21.1414 77.4686 21.0723 78.6017 20.9341C79.7348 20.7683 80.4809 20.4367 80.8402 19.9392C81.2271 19.4141 81.4206 18.6127 81.4206 17.5349V16.0011L89.2139 15.8353V16.4157L82.4569 22.2606H81.5449C81.2962 23.3384 80.8264 24.361 80.1355 25.3282C79.4722 26.2955 78.4773 27.0831 77.1508 27.6911C75.8519 28.2991 74.1109 28.603 71.9277 28.603ZM89.2139 28.1885H81.9595V20.2709L81.4206 19.4003V13.3895H89.2139V28.1885ZM89.2139 18.7371H72.7982V13.0165H89.2139V18.7371Z" fill="url(#paint1_linear_2089_4656)"/>
<path d="M40.8733 28.603C37.6676 28.603 34.904 28.0227 32.5826 26.862C30.2888 25.6737 28.534 24.0155 27.318 21.8875C26.102 19.732 25.494 17.2033 25.494 14.3015C25.494 11.3998 26.102 8.88491 27.318 6.75695C28.534 4.60136 30.2888 2.94321 32.5826 1.78251C34.904 0.594169 37.6676 0 40.8733 0C44.1896 0 46.9947 0.594169 49.2884 1.78251C51.6099 2.94321 53.3785 4.60136 54.5945 6.75695C55.8105 8.88491 56.4185 11.3998 56.4185 14.3015C56.4185 17.2033 55.8105 19.732 54.5945 21.8875C53.3785 24.0155 51.6099 25.6737 49.2884 26.862C46.9947 28.0227 44.1896 28.603 40.8733 28.603ZM40.8733 21.1414C42.7526 21.1414 44.2173 20.9617 45.2674 20.6025C46.3176 20.2156 47.0499 19.5247 47.4645 18.5298C47.9067 17.5349 48.1277 16.1255 48.1277 14.3015C48.1277 12.4499 47.9067 11.0405 47.4645 10.0732C47.0499 9.07836 46.3176 8.40128 45.2674 8.04201C44.2173 7.65511 42.7526 7.46166 40.8733 7.46166C38.9941 7.46166 37.5432 7.65511 36.5207 8.04201C35.4982 8.40128 34.7797 9.07836 34.3651 10.0732C33.9782 11.0405 33.7848 12.4499 33.7848 14.3015C33.7848 16.1255 33.9782 17.5349 34.3651 18.5298C34.7797 19.5247 35.4982 20.2156 36.5207 20.6025C37.5432 20.9617 38.9941 21.1414 40.8733 21.1414Z" fill="url(#paint2_linear_2089_4656)"/>
<path d="M7.79329 28.1885H0V0.414551H7.79329V28.1885ZM23.8359 28.1885H2.15559V21.1828H23.8359V28.1885Z" fill="url(#paint3_linear_2089_4656)"/>
<defs>
<linearGradient id="paint0_linear_2089_4656" x1="106.755" y1="1.17631e-06" x2="141.48" y2="19.9744" gradientUnits="userSpaceOnUse">
<stop stop-color="#5DD4FF"/>
<stop offset="1" stop-color="#FF31EA"/>
</linearGradient>
<linearGradient id="paint1_linear_2089_4656" x1="73.8269" y1="1.17631e-06" x2="108.668" y2="20.1756" gradientUnits="userSpaceOnUse">
<stop stop-color="#5DD4FF"/>
<stop offset="1" stop-color="#FF31EA"/>
</linearGradient>
<linearGradient id="paint2_linear_2089_4656" x1="41.134" y1="1.17631e-06" x2="75.8585" y2="19.9744" gradientUnits="userSpaceOnUse">
<stop stop-color="#5DD4FF"/>
<stop offset="1" stop-color="#FF31EA"/>
</linearGradient>
<linearGradient id="paint3_linear_2089_4656" x1="12.0549" y1="0.414552" x2="41.5306" y2="13.8733" gradientUnits="userSpaceOnUse">
<stop stop-color="#5DD4FF"/>
<stop offset="1" stop-color="#FF31EA"/>
</linearGradient>
</defs>
</svg>
